<svg xmlns="http://www.w3.org/2000/svg" version="1.1" xmlns:xlink="http://www.w3.org/1999/xlink" xmlns:svgjs="http://svgjs.com/svgjs" width="1440" height="560" preserveAspectRatio="none" viewBox="0 0 1440 560"><g mask="url(&quot;#SvgjsMask1000&quot;)" fill="none"><rect width="1440" height="560" x="0" y="0" fill="#0e2a47"></rect><path d="M662.9 206.2L693.02 206.2L693.02 239.1L662.9 239.1z" stroke="#e73635"></path><path d="M972.54 63.85a54.86 54.86 0 1 0 7.07 109.49z" fill="#e73635"></path><path d="M259.56 3.24L284.22 3.24L284.22 27.9L259.56 27.9z" stroke="#d3b714"></path><path d="M1156.44 496.22L1184.48 496.22L1184.48 514.71L1156.44 514.71z" fill="#e73635"></path><path d="M948.1 49.08L989.7 49.08L989.7 103.38L948.1 103.38z" stroke="#037b0b"></path><path d="M700.04 113.19L714.49 113.19L714.49 127.64L700.04 127.64z" fill="#037b0b"></path><path d="M345.19 566.45a15.93 15.93 0 1 0-0.26-31.86z" fill="#d3b714"></path><path d="M1109.23 307.21 a37.33 37.33 0 1 0 74.66 0 a37.33 37.33 0 1 0 -74.66 0z" fill="#037b0b"></path><path d="M1196.21 438.31 a5.12 5.12 0 1 0 10.24 0 a5.12 5.12 0 1 0 -10.24 0z" fill="#d3b714"></path><path d="M996.13 76.56a52.88 52.88 0 1 0 88.08-58.54z" stroke="#037b0b"></path><path d="M-19.13 91.34 a44.91 44.91 0 1 0 89.82 0 a44.91 44.91 0 1 0 -89.82 0z" stroke="#e73635"></path><path d="M155.74 505.75L161.57 505.75L161.57 511.58L155.74 511.58z" fill="#d3b714"></path><path d="M1048.17 373.1 a32.3 32.3 0 1 0 64.6 0 a32.3 32.3 0 1 0 -64.6 0z" fill="#e73635"></path><path d="M101.14 76.2L141.63 76.2L141.63 116.69L101.14 116.69z" fill="#d3b714"></path><path d="M1272.61 332.79L1315.22 332.79L1315.22 375.4L1272.61 375.4z" fill="#037b0b"></path><path d="M1067.79 112.03L1080.39 112.03L1080.39 150.5L1067.79 150.5z" fill="#037b0b"></path><path d="M551.73 310.25a35.89 35.89 0 1 0 30.95-64.77z" stroke="#d3b714"></path><path d="M924.55 302.84L929.19 302.84L929.19 351.97L924.55 351.97z" fill="#037b0b"></path><path d="M347.49 265.84 a52.89 52.89 0 1 0 105.78 0 a52.89 52.89 0 1 0 -105.78 0z" fill="#037b0b"></path><path d="M768.41 135.02L797.73 135.02L797.73 182.78L768.41 182.78z" stroke="#037b0b"></path><path d="M1010.65 1.3 a40.56 40.56 0 1 0 81.12 0 a40.56 40.56 0 1 0 -81.12 0z" stroke="#037b0b"></path><path d="M529.98 4.19 a55.96 55.96 0 1 0 111.92 0 a55.96 55.96 0 1 0 -111.92 0z" fill="#e73635"></path><path d="M848.42 279.58L882.24 279.58L882.24 313.4L848.42 313.4z" fill="#037b0b"></path><path d="M1186.8 112.33a42.12 42.12 0 1 0-41.85-73.11z" stroke="#037b0b"></path><path d="M645.81 71.01 a43.52 43.52 0 1 0 87.04 0 a43.52 43.52 0 1 0 -87.04 0z" stroke="#037b0b"></path><path d="M685.15 72.99L739.25 72.99L739.25 110.31L685.15 110.31z" fill="#e73635"></path><path d="M291.52 289.72L341.79 289.72L341.79 339.99L291.52 339.99z" stroke="#d3b714"></path><path d="M47.89 141.9L68.95 141.9L68.95 155.62L47.89 155.62z" fill="#037b0b"></path><path d="M1229.07 483.96 a38.34 38.34 0 1 0 76.68 0 a38.34 38.34 0 1 0 -76.68 0z" stroke="#037b0b"></path><path d="M1174.6 409.38L1227.6 409.38L1227.6 417.81L1174.6 417.81z" stroke="#e73635"></path><path d="M647.32 40.61L683.95 40.61L683.95 81.21L647.32 81.21z" fill="#d3b714"></path><path d="M1356.72 255.58 a51.74 51.74 0 1 0 103.48 0 a51.74 51.74 0 1 0 -103.48 0z" fill="#037b0b"></path><path d="M1022.45 352.7L1077.74 352.7L1077.74 407.99L1022.45 407.99z" fill="#e73635"></path></g><defs><mask id="SvgjsMask1000"><rect width="1440" height="560" fill="#ffffff"></rect></mask></defs></svg>