<svg xmlns="http://www.w3.org/2000/svg" version="1.1" xmlns:xlink="http://www.w3.org/1999/xlink" xmlns:svgjs="http://svgjs.com/svgjs" width="1440" height="560" preserveAspectRatio="none" viewBox="0 0 1440 560"><g mask="url(&quot;#SvgjsMask1000&quot;)" fill="none"><rect width="1440" height="560" x="0" y="0" fill="#0e2a47"></rect><rect width="208.32" height="208.32" clip-path="url(&quot;#SvgjsClipPath1001&quot;)" x="252.75" y="-64.41" fill="url(#SvgjsPattern1002)" transform="rotate(220.43, 356.91, 39.75)"></rect><circle r="82.28582857992924" cx="1233.38" cy="132.2" stroke="#d3b714" stroke-width="2.73" stroke-dasharray="3, 2"></circle><path d="M1001.7299999999999 625.5600000000001 L984.39 586.53L966.4412592536899 632.6637407463102z" stroke="#e73635" stroke-width="2.59" stroke-dasharray="2, 2"></path><path d="M503.75 87.71L498.44 99.37 485.9 96.75 480.6 108.4 468.06 105.78 462.75 117.44 450.22 114.82" stroke="#e73635" stroke-width="2.79" stroke-dasharray="4, 4"></path><path d="M514.79 115.04a5.6 5.6 0 1 0 8.55-7.25 5.6 5.6 0 1 0-8.55 7.25zM527 104.69a5.6 5.6 0 1 0 8.54-7.24 5.6 5.6 0 1 0-8.54 7.24zM539.2 94.34a5.6 5.6 0 1 0 8.54-7.24 5.6 5.6 0 1 0-8.54 7.24zM551.41 84a5.6 5.6 0 1 0 8.54-7.25 5.6 5.6 0 1 0-8.54 7.25zM500.73 147.93a5.6 5.6 0 1 0 8.54-7.24 5.6 5.6 0 1 0-8.54 7.24zM512.93 137.59a5.6 5.6 0 1 0 8.55-7.25 5.6 5.6 0 1 0-8.55 7.25zM525.14 127.24a5.6 5.6 0 1 0 8.54-7.24 5.6 5.6 0 1 0-8.54 7.24zM537.34 116.89a5.6 5.6 0 1 0 8.55-7.24 5.6 5.6 0 1 0-8.55 7.24z" fill="#e73635"></path><rect width="144" height="144" clip-path="url(&quot;#SvgjsClipPath1003&quot;)" x="572.27" y="372.08" fill="url(#SvgjsPattern1004)" transform="rotate(185.29, 644.27, 444.08)"></rect><rect width="96" height="96" clip-path="url(&quot;#SvgjsClipPath1005&quot;)" x="1146.05" y="133.63" fill="url(#SvgjsPattern1006)" transform="rotate(55.49, 1194.05, 181.63)"></rect><rect width="65.6" height="65.6" clip-path="url(&quot;#SvgjsClipPath1007&quot;)" x="284.69" y="421.85" fill="url(#SvgjsPattern1008)" transform="rotate(203.42, 317.49, 454.65)"></rect><rect width="248.32" height="248.32" clip-path="url(&quot;#SvgjsClipPath1009&quot;)" x="162.26" y="393.6" fill="url(#SvgjsPattern1010)" transform="rotate(44.37, 286.42, 517.76)"></rect><path d="M628.3 64.89L620.64 54.63 628.97 44.9 621.31 34.64 629.64 24.91 621.98 14.65 630.31 4.92M636.29 65.16L628.63 54.9 636.96 45.17 629.3 34.91 637.63 25.18 629.97 14.92 638.3 5.19M644.29 65.43L636.63 55.16 644.96 45.44 637.3 35.18 645.63 25.45 637.97 15.19 646.3 5.46" stroke="#e73635" stroke-width="1" stroke-dasharray="3, 2"></path><path d="M1215.4 344.29L1216.15 331.5 1228.79 329.43 1229.54 316.64 1242.18 314.57 1242.93 301.78 1255.57 299.71M1221.35 349.64L1222.1 336.86 1234.74 334.78 1235.49 322 1248.12 319.92 1248.87 307.14 1261.51 305.07M1227.29 355L1228.04 342.21 1240.68 340.14 1241.43 327.35 1254.07 325.28 1254.82 312.49 1267.45 310.42" stroke="#e73635" stroke-width="1" stroke-dasharray="3, 2"></path><rect width="313.72" height="313.72" clip-path="url(&quot;#SvgjsClipPath1011&quot;)" x="571.92" y="47.08" fill="url(#SvgjsPattern1012)" transform="rotate(290.89, 728.78, 203.94)"></rect></g><defs><mask id="SvgjsMask1000"><rect width="1440" height="560" fill="#ffffff"></rect></mask><pattern x="0" y="0" width="208.32" height="8.68" patternUnits="userSpaceOnUse" id="SvgjsPattern1002"><rect width="208.32" height="4.34" x="0" y="0" fill="#d3b714"></rect><rect width="208.32" height="4.34" x="0" y="4.34" fill="rgba(0, 0, 0, 0)"></rect></pattern><clipPath id="SvgjsClipPath1001"><circle r="52.08" cx="356.91" cy="39.75"></circle></clipPath><pattern x="0" y="0" width="144" height="6" patternUnits="userSpaceOnUse" id="SvgjsPattern1004"><rect width="144" height="3" x="0" y="0" fill="#e73635"></rect><rect width="144" height="3" x="0" y="3" fill="rgba(0, 0, 0, 0)"></rect></pattern><clipPath id="SvgjsClipPath1003"><circle r="36" cx="644.27" cy="444.08"></circle></clipPath><pattern x="0" y="0" width="6" height="6" patternUnits="userSpaceOnUse" id="SvgjsPattern1006"><path d="M0 6L3 0L6 6" stroke="#e73635" fill="none"></path></pattern><clipPath id="SvgjsClipPath1005"><circle r="24" cx="1194.05" cy="181.63"></circle></clipPath><pattern x="0" y="0" width="6.56" height="6.56" patternUnits="userSpaceOnUse" id="SvgjsPattern1008"><path d="M0 6.56L3.28 0L6.56 6.56" stroke="#037b0b" fill="none"></path></pattern><clipPath id="SvgjsClipPath1007"><circle r="16.4" cx="317.49" cy="454.65"></circle></clipPath><pattern x="0" y="0" width="7.76" height="7.76" patternUnits="userSpaceOnUse" id="SvgjsPattern1010"><path d="M3.88 1L3.88 6.76M1 3.88L6.76 3.88" stroke="#d3b714" fill="none" stroke-width="2"></path></pattern><clipPath id="SvgjsClipPath1009"><circle r="62.08" cx="286.42" cy="517.76"></circle></clipPath><pattern x="0" y="0" width="6.82" height="6.82" patternUnits="userSpaceOnUse" id="SvgjsPattern1012"><path d="M0 6.82L3.41 0L6.82 6.82" stroke="#037b0b" fill="none"></path></pattern><clipPath id="SvgjsClipPath1011"><circle r="78.43" cx="728.78" cy="203.94"></circle></clipPath></defs></svg>